REM DIRINDEX 1\6,1\2\7,1\2\8,1\2\9,1\3\10,1\3\11,1\4\12,1\4\13,1\4\14,1\5\15,1\5\16,1\5\17
REM DIRNAME folder01,folder02,folder03,folder04,folder05,folder06,folder07,folder08,folder09,folder10,folder11,folder12,folder13,folder14,folder15,folder16,folder17
TITLE ""
FILE "3Q_k_037-048.mp3" MP3
  TRACK 01 AUDIO
    TITLE "15:cjc041_1348"
    INDEX 01 00:00:00
  TRACK 02 AUDIO
    TITLE "0:"
    INDEX 01 00:01:42
  TRACK 03 AUDIO
    TITLE "16:cjc041_1349"
    INDEX 01 00:02:14
  TRACK 04 AUDIO
    TITLE "0:"
    INDEX 01 00:03:66
  TRACK 05 AUDIO
    TITLE "17:cjc041_1350"
    INDEX 01 00:04:48
  TRACK 06 AUDIO
    TITLE "17:cjc041_1351"
    INDEX 01 00:08:48
  TRACK 07 AUDIO
    TITLE "0:"
    INDEX 01 00:11:46
  TRACK 08 AUDIO
    TITLE "15:cjc041_1352"
    INDEX 01 00:12:24
  TRACK 09 AUDIO
    TITLE "0:"
    INDEX 01 00:14:15
  TRACK 10 AUDIO
    TITLE "16:cjc041_1353"
    INDEX 01 00:14:66
  TRACK 11 AUDIO
    TITLE "0:"
    INDEX 01 00:16:49
  TRACK 12 AUDIO
    TITLE "17:cjc041_1354"
    INDEX 01 00:17:31
  TRACK 13 AUDIO
    TITLE "17:cjc041_1355"
    INDEX 01 00:21:06
  TRACK 14 AUDIO
    TITLE "0:"
    INDEX 01 00:22:72
  TRACK 15 AUDIO
    TITLE "15:cjc041_1356"
    INDEX 01 00:23:50
  TRACK 16 AUDIO
    TITLE "0:"
    INDEX 01 00:25:09
  TRACK 17 AUDIO
    TITLE "16:cjc041_1357"
    INDEX 01 00:25:62
  TRACK 18 AUDIO
    TITLE "0:"
    INDEX 01 00:28:21
  TRACK 19 AUDIO
    TITLE "17:cjc041_1358"
    INDEX 01 00:28:74
  TRACK 20 AUDIO
    TITLE "17:cjc041_1359"
    INDEX 01 00:32:47
  TRACK 21 AUDIO
    TITLE "0:"
    INDEX 01 00:35:39
  TRACK 22 AUDIO
    TITLE "15:cjc041_1360"
    INDEX 01 00:36:17
  TRACK 23 AUDIO
    TITLE "0:"
    INDEX 01 00:38:22
  TRACK 24 AUDIO
    TITLE "16:cjc041_1361"
    INDEX 01 00:38:73
  TRACK 25 AUDIO
    TITLE "0:"
    INDEX 01 00:41:42
  TRACK 26 AUDIO
    TITLE "17:cjc041_1362"
    INDEX 01 00:42:19
  TRACK 27 AUDIO
    TITLE "17:cjc041_1363"
    INDEX 01 00:44:46
  TRACK 28 AUDIO
    TITLE "0:"
    INDEX 01 00:48:69
  TRACK 29 AUDIO
    TITLE "15:cjc041_1364"
    INDEX 01 00:49:53
  TRACK 30 AUDIO
    TITLE "0:"
    INDEX 01 00:51:36
  TRACK 31 AUDIO
    TITLE "16:cjc041_1365"
    INDEX 01 00:52:16
  TRACK 32 AUDIO
    TITLE "0:"
    INDEX 01 00:54:54
  TRACK 33 AUDIO
    TITLE "17:cjc041_1366"
    INDEX 01 00:55:34
  TRACK 34 AUDIO
    TITLE "17:cjc041_1367"
    INDEX 01 00:58:07
  TRACK 35 AUDIO
    TITLE "0:"
    INDEX 01 01:02:67
  TRACK 36 AUDIO
    TITLE "15:cjc041_1368"
    INDEX 01 01:03:49
  TRACK 37 AUDIO
    TITLE "0:"
    INDEX 01 01:05:07
  TRACK 38 AUDIO
    TITLE "16:cjc041_1369"
    INDEX 01 01:05:66
  TRACK 39 AUDIO
    TITLE "0:"
    INDEX 01 01:07:27
  TRACK 40 AUDIO
    TITLE "17:cjc041_1370"
    INDEX 01 01:08:03
  TRACK 41 AUDIO
    TITLE "17:cjc041_1371"
    INDEX 01 01:10:39
  TRACK 42 AUDIO
    TITLE "0:"
    INDEX 01 01:12:42
  TRACK 43 AUDIO
    TITLE "15:cjc041_1372"
    INDEX 01 01:13:30
  TRACK 44 AUDIO
    TITLE "0:"
    INDEX 01 01:14:63
  TRACK 45 AUDIO
    TITLE "16:cjc041_1373"
    INDEX 01 01:15:50
  TRACK 46 AUDIO
    TITLE "0:"
    INDEX 01 01:17:45
  TRACK 47 AUDIO
    TITLE "17:cjc041_1374"
    INDEX 01 01:18:23
  TRACK 48 AUDIO
    TITLE "17:cjc041_1375"
    INDEX 01 01:20:40
  TRACK 49 AUDIO
    TITLE "0:"
    INDEX 01 01:22:60
  TRACK 50 AUDIO
    TITLE "15:cjc041_1376"
    INDEX 01 01:23:44
  TRACK 51 AUDIO
    TITLE "0:"
    INDEX 01 01:25:49
  TRACK 52 AUDIO
    TITLE "16:cjc041_1377"
    INDEX 01 01:26:30
  TRACK 53 AUDIO
    TITLE "0:"
    INDEX 01 01:29:03
  TRACK 54 AUDIO
    TITLE "17:cjc041_1378"
    INDEX 01 01:29:56
  TRACK 55 AUDIO
    TITLE "17:cjc041_1379"
    INDEX 01 01:33:03
  TRACK 56 AUDIO
    TITLE "0:"
    INDEX 01 01:34:69
  TRACK 57 AUDIO
    TITLE "15:cjc041_1380"
    INDEX 01 01:35:49
  TRACK 58 AUDIO
    TITLE "0:"
    INDEX 01 01:37:42
  TRACK 59 AUDIO
    TITLE "16:cjc041_1381"
    INDEX 01 01:38:18
  TRACK 60 AUDIO
    TITLE "0:"
    INDEX 01 01:41:24
  TRACK 61 AUDIO
    TITLE "17:cjc041_1382"
    INDEX 01 01:42:06
  TRACK 62 AUDIO
    TITLE "17:cjc041_1383"
    INDEX 01 01:43:43
  TRACK 63 AUDIO
    TITLE "0:"
    INDEX 01 01:45:61
  TRACK 64 AUDIO
    TITLE "15:cjc041_1384"
    INDEX 01 01:46:37
  TRACK 65 AUDIO
    TITLE "0:"
    INDEX 01 01:48:30
  TRACK 66 AUDIO
    TITLE "16:cjc041_1385"
    INDEX 01 01:49:12
  TRACK 67 AUDIO
    TITLE "0:"
    INDEX 01 01:51:27
  TRACK 68 AUDIO
    TITLE "17:cjc041_1386"
    INDEX 01 01:52:08
  TRACK 69 AUDIO
    TITLE "17:cjc041_1387"
    INDEX 01 01:55:34
  TRACK 70 AUDIO
    TITLE "0:"
    INDEX 01 01:58:13
  TRACK 71 AUDIO
    TITLE "15:cjc041_1388"
    INDEX 01 01:58:68
  TRACK 72 AUDIO
    TITLE "0:"
    INDEX 01 02:00:45
  TRACK 73 AUDIO
    TITLE "16:cjc041_1389"
    INDEX 01 02:01:31
  TRACK 74 AUDIO
    TITLE "0:"
    INDEX 01 02:03:12
  TRACK 75 AUDIO
    TITLE "17:cjc041_1390"
    INDEX 01 02:03:67
  TRACK 76 AUDIO
    TITLE "17:cjc041_1391"
    INDEX 01 02:06:18
  TRACK 77 AUDIO
    TITLE "0:"
    INDEX 01 02:09:48
  TRACK 78 AUDIO
    TITLE "15:cjc041_1392"
    INDEX 01 02:10:30
  TRACK 79 AUDIO
    TITLE "0:"
    INDEX 01 02:11:63
  TRACK 80 AUDIO
    TITLE "16:cjc041_1393"
    INDEX 01 02:12:40
  TRACK 81 AUDIO
    TITLE "0:"
    INDEX 01 02:15:27
  TRACK 82 AUDIO
    TITLE "17:cjc041_1394"
    INDEX 01 02:16:13
  TRACK 83 AUDIO
    TITLE "17:cjc041_1395"
    INDEX 01 02:18:72
  TRACK 84 AUDIO
    TITLE "0:"
    INDEX 01 02:20:40
